<svg xmlns="http://www.w3.org/2000/svg" width="144" height="25" viewBox="0 0 144 25" fill="none">
    <g>
        <path fill="#000e38" d="M0 0H3.26601L13.8828 15.4476V0H17.4036V21.7977H14.1376L3.52074 6.35007V21.7977H0V0Z"
        />
        <path fill="#000e38"
              d="M19.6966 13.8557C19.6966 8.93399 22.8443 5.66797 27.5387 5.66797C32.233 5.66797 35.2261 8.59738 35.3261 13.2644C35.3261 13.6646 35.2989 14.1013 35.2352 14.538H23.2173V14.7564C23.3083 17.4674 25.0277 19.2414 27.666 19.2414C29.7221 19.2414 31.2141 18.2134 31.678 16.4394H35.0441C34.4801 19.5871 31.8054 21.9799 27.848 21.9799C22.8352 21.9799 19.6875 18.7411 19.6875 13.8557H19.6966ZM31.8418 12.0817C31.5598 9.71637 29.9131 8.37904 27.5751 8.37904C25.428 8.37904 23.5903 9.80735 23.3447 12.0817H31.8418Z"
        />
        <path fill="#000e38"
              d="M44.5055 5.66797C48.7358 5.66797 51.1649 7.68763 51.1649 11.463V17.8495C51.1649 18.6592 51.5106 18.8775 52.1929 18.8775H52.8752V21.8069H51.1012C48.9178 21.8069 48.1718 20.8426 48.1718 19.2505C47.1165 20.8699 45.4971 21.9889 42.9134 21.9889C39.429 21.9889 37 20.2786 37 17.3219C37 14.0558 39.3654 12.2181 43.8231 12.2181H47.8443V11.2538C47.8443 9.47984 46.5706 8.38814 44.3599 8.38814C42.3675 8.38814 41.0302 9.32518 40.7755 10.7261H37.4731C37.8188 7.61485 40.4934 5.68617 44.5055 5.68617V5.66797ZM43.3865 19.3688C46.1885 19.3688 47.8079 17.7221 47.8352 15.2567V14.6927H43.6594C41.5761 14.6927 40.4207 15.4751 40.4207 17.0944C40.4207 18.4318 41.5397 19.3688 43.3774 19.3688H43.3865Z"></path>
        <path fill="#000e38"
              d="M58.1152 5.84961L58.4882 8.25136C59.2978 6.91402 60.5715 5.84961 63.1916 5.84961H75.6734V8.99736H62.4456C59.4525 8.99736 58.4882 11.3354 58.4882 13.7918V21.7976H55.1221V5.84961H58.1152Z"></path>
        <path fill="#000e38"
              d="M68.013 5.84971V4.35771C68.013 1.49199 69.3868 0 72.4617 0H75.6731V2.9567H72.8984C71.8067 2.9567 71.3427 3.42067 71.3427 4.51237V5.84971H75.6731V8.8064H71.4064V21.7886H68.013V8.8064H65.2383V5.84971H68.013Z"></path>
        <path fill="#000e38"
              d="M84.1973 5.66797C89.0554 5.66797 92.3214 8.97038 92.3214 13.8284C92.3214 18.6865 89.0554 21.9889 84.1973 21.9889C79.3393 21.9889 76.0732 18.7229 76.0732 13.8284C76.0732 8.93399 79.3393 5.66797 84.1973 5.66797ZM88.9008 13.8284C88.9008 10.7443 87.0358 8.5337 84.1973 8.5337C81.3589 8.5337 79.5303 10.7443 79.5303 13.8284C79.5303 16.9125 81.368 19.1232 84.1973 19.1232C87.0267 19.1232 88.9008 16.9125 88.9008 13.8284Z"></path>
        <path fill="#000e38"
              d="M97.498 5.84961L97.871 8.25136C98.6807 6.91402 99.9543 5.84961 102.574 5.84961H103.32V8.99736H101.828C98.8353 8.99736 97.871 11.3354 97.871 13.7918V21.7976H94.5049V5.84961H97.498Z"></path>
        <path fill="#000e38"
              d="M105.376 5.84925H108.306L108.679 7.93258C109.579 6.74991 110.953 5.69459 113.346 5.6582C115.429 5.6582 117.303 6.49518 118.267 8.55122C119.296 6.80449 121.097 5.6582 123.717 5.6582C127.019 5.6582 129.694 7.55959 129.694 12.5996V21.7881H126.328V12.818C126.328 10.0159 125.172 8.55122 122.998 8.55122C120.697 8.55122 119.232 10.2979 119.232 13.1637V21.7881H115.838V12.818C115.838 10.0159 114.683 8.55122 112.472 8.55122C110.262 8.55122 108.733 10.4162 108.733 13.2546V21.7881H105.367V5.84925H105.376Z"></path>
    </g>
    <g>
        <path fill="#00e6a4" d="M131.505 21.7979H143.741V25.0093H131.505V21.7979Z"
              class="fill-nf-green dark:fill-white green:fill-white"></path>
    </g>
</svg>